# xmcd CD database file
#
# Track frame offsets:
#	150
#	12762
#	28014
#	53940
#	67836
#	71934
#	95634
#	100806
#	109648
#	132938
#	155000
#	159848
#	193330
#	205790
#	213002
#	236998
#	244108
#
# Disc length: 3318 seconds
#
# Revision: 0
# Processed by: cddbd v1.5.2PL0 Copyright (c) Steve Scherf et al.
# Submitted via: CDex 1.51
#
DISCID=ec0cf411
DTITLE=Albert Mangelsdorff - Solo CD2
DYEAR=2009
DGENRE=Jazz
TTITLE0=Questions To Come
TTITLE1=Marc Suetterlyn's Boogie
TTITLE2=Für Peter
TTITLE3=Brief Inventions
TTITLE4=Sit And Think
TTITLE5=Responsory
TTITLE6=Für G.K.
TTITLE7=Föhnhammer
TTITLE8=Nexus
TTITLE9=Der Alte Dreiviertel
TTITLE10=Lost And Found
TTITLE11=Rooty Toot
TTITLE12=Brief Impressions Of Brighton
TTITLE13=What Did The Bird Say?
TTITLE14=Bone Blues
TTITLE15=J.C. Was Here
TTITLE16=Give Me Some Skin
EXTD=YEAR: 2009
EXTT0=
EXTT1=
EXTT2=
EXTT3=
EXTT4=
EXTT5=
EXTT6=
EXTT7=
EXTT8=
EXTT9=
EXTT10=
EXTT11=
EXTT12=
EXTT13=
EXTT14=
EXTT15=
EXTT16=
PLAYORDER=
